<mxfile host="Electron" modified="2023-10-24T20:16:33.536Z" agent="Mozilla/5.0 (Windows NT 10.0; Win64; x64) AppleWebKit/537.36 (KHTML, like Gecko) draw.io/22.0.3 Chrome/114.0.5735.289 Electron/25.8.4 Safari/537.36" etag="q3qnerpLjItXICH-iN0p" version="22.0.3" type="device">
  <diagram name="Strona-1" id="26SbDysGSmhnUaPpNsRJ">
    <mxGraphModel dx="1039" dy="692" grid="1" gridSize="10" guides="1" tooltips="1" connect="1" arrows="1" fold="1" page="1" pageScale="1" pageWidth="827" pageHeight="1169" math="0" shadow="0">
      <root>
        <mxCell id="0" />
        <mxCell id="1" parent="0" />
        <mxCell id="O6e28tG1GYHOSvyffjGR-31" value="" style="group" vertex="1" connectable="0" parent="1">
          <mxGeometry x="40" y="40" width="940" height="920" as="geometry" />
        </mxCell>
        <mxCell id="O6e28tG1GYHOSvyffjGR-23" value="" style="group" vertex="1" connectable="0" parent="O6e28tG1GYHOSvyffjGR-31">
          <mxGeometry y="120" width="940" height="800" as="geometry" />
        </mxCell>
        <mxCell id="O6e28tG1GYHOSvyffjGR-28" value="" style="group" vertex="1" connectable="0" parent="O6e28tG1GYHOSvyffjGR-23">
          <mxGeometry width="940" height="800" as="geometry" />
        </mxCell>
        <mxCell id="O6e28tG1GYHOSvyffjGR-2" value="&lt;font style=&quot;font-size: 20px;&quot;&gt;&lt;b&gt;Uczelnia&lt;/b&gt;&lt;/font&gt;&lt;br&gt;&lt;font style=&quot;font-size: 14px;&quot;&gt;(interesariusze wewnętrzni: władze uczelni, studenci,&amp;nbsp;pracownicy administracyjni,&amp;nbsp;pracownicy dydaktyczni i naukowi, absolwenci)&lt;br&gt;&lt;/font&gt;" style="rounded=0;whiteSpace=wrap;html=1;dashed=1;strokeWidth=3;fillColor=#FFFFFF;strokeColor=#000000;verticalAlign=top;align=center;horizontal=1;gradientColor=none;" vertex="1" parent="O6e28tG1GYHOSvyffjGR-28">
          <mxGeometry width="940" height="800" as="geometry" />
        </mxCell>
        <mxCell id="O6e28tG1GYHOSvyffjGR-27" value="" style="group" vertex="1" connectable="0" parent="O6e28tG1GYHOSvyffjGR-28">
          <mxGeometry x="40" y="80" width="860" height="690" as="geometry" />
        </mxCell>
        <mxCell id="O6e28tG1GYHOSvyffjGR-8" value="&lt;font style=&quot;&quot;&gt;&lt;b style=&quot;&quot;&gt;&lt;font style=&quot;font-size: 22px;&quot;&gt;Kultura jakości&lt;/font&gt;&lt;/b&gt;&lt;br&gt;&lt;span style=&quot;font-size: 18px;&quot;&gt;w jednostkach organizacyjnych uczelni&lt;/span&gt;&lt;br&gt;&lt;br&gt;&lt;br&gt;&lt;b style=&quot;&quot;&gt;&lt;font style=&quot;font-size: 22px;&quot;&gt;Przywództwo&lt;/font&gt;&lt;/b&gt;&lt;br&gt;&lt;span style=&quot;font-size: 18px;&quot;&gt;kierownictwa uczelni i jej jednostek&lt;/span&gt;&lt;/font&gt;" style="rounded=1;whiteSpace=wrap;html=1;sketch=1;curveFitting=1;jiggle=2;strokeWidth=2;" vertex="1" parent="O6e28tG1GYHOSvyffjGR-27">
          <mxGeometry y="510" width="410" height="180" as="geometry" />
        </mxCell>
        <mxCell id="O6e28tG1GYHOSvyffjGR-21" value="&lt;font style=&quot;&quot;&gt;&lt;b style=&quot;&quot;&gt;&lt;font style=&quot;font-size: 20px;&quot;&gt;Inicjatywy oddolne&lt;/font&gt;&lt;/b&gt;&lt;br&gt;&lt;span style=&quot;font-size: 18px;&quot;&gt;zespołów pracowników akademickich, naukowych i administracyjnych przy zastosowaniu &lt;/span&gt;&lt;br&gt;&lt;span style=&quot;font-size: 18px;&quot;&gt;Lean Management (Lean HE), Lean SixSigma&lt;/span&gt;&lt;/font&gt;" style="rounded=1;whiteSpace=wrap;html=1;sketch=1;curveFitting=1;jiggle=2;glass=0;strokeWidth=2;" vertex="1" parent="O6e28tG1GYHOSvyffjGR-27">
          <mxGeometry x="470" y="510" width="390" height="180" as="geometry" />
        </mxCell>
        <mxCell id="O6e28tG1GYHOSvyffjGR-26" value="" style="group" vertex="1" connectable="0" parent="O6e28tG1GYHOSvyffjGR-27">
          <mxGeometry width="860" height="440" as="geometry" />
        </mxCell>
        <mxCell id="O6e28tG1GYHOSvyffjGR-6" value="" style="group;rounded=1;sketch=1;curveFitting=1;jiggle=2;" vertex="1" connectable="0" parent="O6e28tG1GYHOSvyffjGR-26">
          <mxGeometry y="60" width="340" height="250" as="geometry" />
        </mxCell>
        <mxCell id="O6e28tG1GYHOSvyffjGR-4" value="&lt;font size=&quot;1&quot; style=&quot;&quot;&gt;&lt;b style=&quot;font-size: 18px;&quot;&gt;Strategia uczelni&lt;/b&gt;&lt;/font&gt;" style="rounded=0;whiteSpace=wrap;html=1;strokeWidth=2;horizontal=0;sketch=1;curveFitting=1;jiggle=2;" vertex="1" parent="O6e28tG1GYHOSvyffjGR-6">
          <mxGeometry width="70" height="250.00000000000003" as="geometry" />
        </mxCell>
        <mxCell id="O6e28tG1GYHOSvyffjGR-5" value="&lt;font style=&quot;&quot;&gt;&lt;b style=&quot;&quot;&gt;&lt;font style=&quot;font-size: 18px;&quot;&gt;Samoocena&lt;/font&gt;&lt;/b&gt;&lt;br&gt;&lt;span style=&quot;font-size: 14px;&quot;&gt;(np. CAF, EFQM)&lt;/span&gt;&lt;br&gt;&lt;span style=&quot;font-size: 14px;&quot;&gt;gotowość do zmian&lt;/span&gt;&lt;/font&gt;" style="ellipse;shape=cloud;whiteSpace=wrap;html=1;sketch=1;curveFitting=1;jiggle=2;" vertex="1" parent="O6e28tG1GYHOSvyffjGR-6">
          <mxGeometry x="110" y="35" width="230" height="180" as="geometry" />
        </mxCell>
        <mxCell id="O6e28tG1GYHOSvyffjGR-25" value="" style="group" vertex="1" connectable="0" parent="O6e28tG1GYHOSvyffjGR-26">
          <mxGeometry x="380" width="480" height="440" as="geometry" />
        </mxCell>
        <mxCell id="O6e28tG1GYHOSvyffjGR-7" value="&lt;b&gt;&lt;font style=&quot;font-size: 18px;&quot;&gt;&lt;br&gt;Zarządzanie procesami i wiedzą&lt;/font&gt;&lt;/b&gt;&lt;br&gt;&lt;font style=&quot;&quot;&gt;(&lt;/font&gt;&lt;font style=&quot;font-size: 14px;&quot;&gt;kształcenie, badania naukowe, administracja i obsłga, usługi dla otoczenia)&lt;/font&gt;" style="rounded=1;whiteSpace=wrap;html=1;verticalAlign=top;sketch=1;curveFitting=1;jiggle=2;strokeWidth=2;" vertex="1" parent="O6e28tG1GYHOSvyffjGR-25">
          <mxGeometry width="480" height="440" as="geometry" />
        </mxCell>
        <mxCell id="O6e28tG1GYHOSvyffjGR-24" value="" style="group" vertex="1" connectable="0" parent="O6e28tG1GYHOSvyffjGR-25">
          <mxGeometry x="40" y="110" width="400" height="310" as="geometry" />
        </mxCell>
        <mxCell id="O6e28tG1GYHOSvyffjGR-19" value="" style="group" vertex="1" connectable="0" parent="O6e28tG1GYHOSvyffjGR-24">
          <mxGeometry width="400" height="210" as="geometry" />
        </mxCell>
        <mxCell id="O6e28tG1GYHOSvyffjGR-9" value="&lt;b&gt;&lt;font style=&quot;font-size: 16px;&quot;&gt;Projektowanie&lt;/font&gt;&lt;/b&gt;" style="rounded=0;whiteSpace=wrap;html=1;strokeWidth=2;sketch=1;curveFitting=1;jiggle=2;" vertex="1" parent="O6e28tG1GYHOSvyffjGR-19">
          <mxGeometry x="140" width="120" height="30" as="geometry" />
        </mxCell>
        <mxCell id="O6e28tG1GYHOSvyffjGR-10" value="&lt;b&gt;&lt;font style=&quot;font-size: 16px;&quot;&gt;Nadzorowanie&lt;/font&gt;&lt;/b&gt;" style="rounded=0;whiteSpace=wrap;html=1;strokeWidth=2;sketch=1;curveFitting=1;jiggle=2;" vertex="1" parent="O6e28tG1GYHOSvyffjGR-19">
          <mxGeometry x="140" y="180" width="120" height="30" as="geometry" />
        </mxCell>
        <mxCell id="O6e28tG1GYHOSvyffjGR-18" style="edgeStyle=orthogonalEdgeStyle;rounded=1;orthogonalLoop=1;jettySize=auto;html=1;exitX=0.5;exitY=0;exitDx=0;exitDy=0;entryX=0;entryY=0.5;entryDx=0;entryDy=0;shape=flexArrow;targetPerimeterSpacing=1;sourcePerimeterSpacing=1;sketch=1;curveFitting=1;jiggle=2;" edge="1" parent="O6e28tG1GYHOSvyffjGR-19" source="O6e28tG1GYHOSvyffjGR-11" target="O6e28tG1GYHOSvyffjGR-9">
          <mxGeometry relative="1" as="geometry" />
        </mxCell>
        <mxCell id="O6e28tG1GYHOSvyffjGR-11" value="&lt;b&gt;&lt;font style=&quot;font-size: 16px;&quot;&gt;Doskonalenie&lt;/font&gt;&lt;/b&gt;" style="rounded=0;whiteSpace=wrap;html=1;strokeWidth=2;sketch=1;curveFitting=1;jiggle=2;" vertex="1" parent="O6e28tG1GYHOSvyffjGR-19">
          <mxGeometry y="90" width="120" height="30" as="geometry" />
        </mxCell>
        <mxCell id="O6e28tG1GYHOSvyffjGR-17" style="edgeStyle=orthogonalEdgeStyle;rounded=1;orthogonalLoop=1;jettySize=auto;html=1;exitX=0;exitY=0.5;exitDx=0;exitDy=0;entryX=0.5;entryY=1;entryDx=0;entryDy=0;shape=flexArrow;targetPerimeterSpacing=1;sourcePerimeterSpacing=1;sketch=1;curveFitting=1;jiggle=2;" edge="1" parent="O6e28tG1GYHOSvyffjGR-19" source="O6e28tG1GYHOSvyffjGR-10" target="O6e28tG1GYHOSvyffjGR-11">
          <mxGeometry relative="1" as="geometry" />
        </mxCell>
        <mxCell id="O6e28tG1GYHOSvyffjGR-16" style="edgeStyle=orthogonalEdgeStyle;rounded=1;orthogonalLoop=1;jettySize=auto;html=1;exitX=0.5;exitY=1;exitDx=0;exitDy=0;entryX=1;entryY=0.5;entryDx=0;entryDy=0;shape=flexArrow;targetPerimeterSpacing=1;sourcePerimeterSpacing=1;sketch=1;curveFitting=1;jiggle=2;" edge="1" parent="O6e28tG1GYHOSvyffjGR-19" source="O6e28tG1GYHOSvyffjGR-12" target="O6e28tG1GYHOSvyffjGR-10">
          <mxGeometry relative="1" as="geometry" />
        </mxCell>
        <mxCell id="O6e28tG1GYHOSvyffjGR-12" value="&lt;b&gt;&lt;font style=&quot;font-size: 16px;&quot;&gt;Wdrażanie&lt;/font&gt;&lt;/b&gt;" style="rounded=0;whiteSpace=wrap;html=1;strokeWidth=2;sketch=1;curveFitting=1;jiggle=2;" vertex="1" parent="O6e28tG1GYHOSvyffjGR-19">
          <mxGeometry x="280" y="90" width="120" height="30" as="geometry" />
        </mxCell>
        <mxCell id="O6e28tG1GYHOSvyffjGR-15" style="edgeStyle=orthogonalEdgeStyle;rounded=1;orthogonalLoop=1;jettySize=auto;html=1;exitX=1;exitY=0.5;exitDx=0;exitDy=0;entryX=0.5;entryY=0;entryDx=0;entryDy=0;shape=flexArrow;targetPerimeterSpacing=1;sourcePerimeterSpacing=1;sketch=1;curveFitting=1;jiggle=2;" edge="1" parent="O6e28tG1GYHOSvyffjGR-19" source="O6e28tG1GYHOSvyffjGR-9" target="O6e28tG1GYHOSvyffjGR-12">
          <mxGeometry relative="1" as="geometry" />
        </mxCell>
        <mxCell id="O6e28tG1GYHOSvyffjGR-14" value="&lt;b style=&quot;font-size: 16px;&quot;&gt;WSZJK&lt;br&gt;ISO 9001&lt;br&gt;ISO 21001&lt;br&gt;inne&lt;/b&gt;" style="shape=hexagon;perimeter=hexagonPerimeter2;whiteSpace=wrap;html=1;fixedSize=1;sketch=1;curveFitting=1;jiggle=2;strokeWidth=2;" vertex="1" parent="O6e28tG1GYHOSvyffjGR-19">
          <mxGeometry x="130" y="45" width="140" height="120" as="geometry" />
        </mxCell>
        <mxCell id="O6e28tG1GYHOSvyffjGR-22" value="&lt;b style=&quot;border-color: var(--border-color);&quot;&gt;&lt;font style=&quot;border-color: var(--border-color); font-size: 17px;&quot;&gt;Wsparcie informatyczne&lt;/font&gt;&lt;/b&gt;" style="ellipse;shape=cloud;whiteSpace=wrap;html=1;sketch=1;curveFitting=1;jiggle=2;" vertex="1" parent="O6e28tG1GYHOSvyffjGR-24">
          <mxGeometry x="50" y="250" width="300" height="60" as="geometry" />
        </mxCell>
        <mxCell id="O6e28tG1GYHOSvyffjGR-32" value="" style="group" vertex="1" connectable="0" parent="O6e28tG1GYHOSvyffjGR-31">
          <mxGeometry width="940" height="60" as="geometry" />
        </mxCell>
        <mxCell id="O6e28tG1GYHOSvyffjGR-30" value="" style="group" vertex="1" connectable="0" parent="O6e28tG1GYHOSvyffjGR-32">
          <mxGeometry width="940" height="60" as="geometry" />
        </mxCell>
        <mxCell id="O6e28tG1GYHOSvyffjGR-29" value="" style="group" vertex="1" connectable="0" parent="O6e28tG1GYHOSvyffjGR-30">
          <mxGeometry width="940" height="60" as="geometry" />
        </mxCell>
        <mxCell id="O6e28tG1GYHOSvyffjGR-1" value="&lt;b&gt;&lt;font style=&quot;font-size: 20px;&quot;&gt;Interesariusze zewnętrzni&lt;/font&gt;&lt;/b&gt;&lt;br&gt;&lt;font style=&quot;font-size: 14px;&quot;&gt;(pracodawcy, przedsiębiorstwa i organizacje publiczne, przedstawiciele władz lokalnych i centralnych, społeczeństwo, absolwenci, rodzice studentów)&lt;/font&gt;" style="rounded=0;whiteSpace=wrap;html=1;strokeWidth=3;fillColor=#FFFFFF;strokeColor=#000000;gradientColor=none;" vertex="1" parent="O6e28tG1GYHOSvyffjGR-29">
          <mxGeometry width="940" height="60" as="geometry" />
        </mxCell>
        <mxCell id="O6e28tG1GYHOSvyffjGR-3" value="" style="rounded=0;orthogonalLoop=1;jettySize=auto;html=1;shape=flexArrow;startArrow=block;strokeWidth=3;endSize=3;startSize=3;targetPerimeterSpacing=0;elbow=vertical;sketch=1;curveFitting=1;jiggle=2;" edge="1" parent="O6e28tG1GYHOSvyffjGR-32" source="O6e28tG1GYHOSvyffjGR-1" target="O6e28tG1GYHOSvyffjGR-2">
          <mxGeometry relative="1" as="geometry" />
        </mxCell>
        <mxCell id="O6e28tG1GYHOSvyffjGR-33" value="" style="endArrow=classic;html=1;rounded=0;strokeWidth=3;" edge="1" parent="1">
          <mxGeometry width="50" height="50" relative="1" as="geometry">
            <mxPoint x="150" y="320" as="sourcePoint" />
            <mxPoint x="460" y="320" as="targetPoint" />
          </mxGeometry>
        </mxCell>
        <mxCell id="O6e28tG1GYHOSvyffjGR-34" value="" style="endArrow=none;html=1;rounded=0;strokeWidth=3;startArrow=classic;startFill=1;endFill=0;" edge="1" parent="1">
          <mxGeometry width="50" height="50" relative="1" as="geometry">
            <mxPoint x="150" y="530" as="sourcePoint" />
            <mxPoint x="460" y="530" as="targetPoint" />
          </mxGeometry>
        </mxCell>
        <mxCell id="O6e28tG1GYHOSvyffjGR-35" value="" style="endArrow=classic;html=1;rounded=0;strokeWidth=3;startArrow=classic;startFill=1;endFill=1;" edge="1" parent="1">
          <mxGeometry width="50" height="50" relative="1" as="geometry">
            <mxPoint x="490" y="840" as="sourcePoint" />
            <mxPoint x="550" y="840" as="targetPoint" />
          </mxGeometry>
        </mxCell>
        <mxCell id="O6e28tG1GYHOSvyffjGR-36" value="" style="endArrow=classic;html=1;rounded=0;strokeWidth=3;startArrow=classic;startFill=1;endFill=1;" edge="1" parent="1">
          <mxGeometry width="50" height="50" relative="1" as="geometry">
            <mxPoint x="470" y="750" as="sourcePoint" />
            <mxPoint x="470" y="660" as="targetPoint" />
          </mxGeometry>
        </mxCell>
        <mxCell id="O6e28tG1GYHOSvyffjGR-37" value="" style="endArrow=classic;html=1;rounded=0;strokeWidth=3;startArrow=classic;startFill=1;endFill=1;" edge="1" parent="1">
          <mxGeometry width="50" height="50" relative="1" as="geometry">
            <mxPoint x="750" y="750" as="sourcePoint" />
            <mxPoint x="750" y="680" as="targetPoint" />
          </mxGeometry>
        </mxCell>
        <mxCell id="O6e28tG1GYHOSvyffjGR-38" value="" style="endArrow=classic;html=1;rounded=0;strokeWidth=3;startArrow=classic;startFill=1;endFill=1;" edge="1" parent="1">
          <mxGeometry width="50" height="50" relative="1" as="geometry">
            <mxPoint x="115" y="750" as="sourcePoint" />
            <mxPoint x="115" y="550" as="targetPoint" />
          </mxGeometry>
        </mxCell>
      </root>
    </mxGraphModel>
  </diagram>
</mxfile>
